<svg xmlns="http://www.w3.org/2000/svg" viewBox="0 0 512 512">
  <defs>
    <linearGradient id="grad1" x1="0%" y1="0%" x2="100%" y2="100%">
      <stop offset="0%" style="stop-color:#ea580c;stop-opacity:1" />
      <stop offset="100%" style="stop-color:#0284c7;stop-opacity:1" />
    </linearGradient>
  </defs>
  <circle cx="256" cy="256" r="240" fill="url(#grad1)" />
  <path d="M176 128Q176 96 208 96T240 128V224H272V128Q272 96 304 96T336 128V224H352V128Q352 80 304 64Q304 32 320 32Q336 32 336 64V128H368V32H384V128Q384 176 352 192V368Q352 400 320 400H192Q160 400 160 368V192Q128 176 128 128V32H144V128H176V32H192V128Q208 112 208 64Q208 32 224 32Q240 32 240 64Q240 80 192 128V224H176V128Z" fill="white" transform="translate(0, 40)" />
</svg>
